<mxfile host="app.diagrams.net" agent="Mozilla/5.0 (Windows NT 10.0; Win64; x64) AppleWebKit/537.36 (KHTML, like Gecko) Chrome/135.0.0.0 Safari/537.36 OPR/120.0.0.0 (Edition std-1)" version="28.1.2">
  <diagram name="PÃ¡gina-1" id="tXtiLclYRCGy5FRw7-Ta">
    <mxGraphModel dx="2456" dy="936" grid="1" gridSize="10" guides="1" tooltips="1" connect="1" arrows="1" fold="1" page="1" pageScale="1" pageWidth="827" pageHeight="1169" math="0" shadow="0">
      <root>
        <mxCell id="0" />
        <mxCell id="1" parent="0" />
        <mxCell id="LwiWHXRCM4ZRAMe9DYlA-21" value="" style="rounded=0;whiteSpace=wrap;html=1;" vertex="1" parent="1">
          <mxGeometry x="-60" y="470" width="580" height="200" as="geometry" />
        </mxCell>
        <mxCell id="LwiWHXRCM4ZRAMe9DYlA-4" value="" style="edgeStyle=orthogonalEdgeStyle;rounded=0;orthogonalLoop=1;jettySize=auto;html=1;entryX=0;entryY=0.5;entryDx=0;entryDy=0;entryPerimeter=0;" edge="1" parent="1" source="LwiWHXRCM4ZRAMe9DYlA-2" target="LwiWHXRCM4ZRAMe9DYlA-24">
          <mxGeometry relative="1" as="geometry">
            <mxPoint x="-210" y="584.28" as="targetPoint" />
          </mxGeometry>
        </mxCell>
        <mxCell id="LwiWHXRCM4ZRAMe9DYlA-2" value="" style="image;aspect=fixed;html=1;points=[];align=center;fontSize=12;image=img/lib/azure2/identity/Users.svg;" vertex="1" parent="1">
          <mxGeometry x="-390" y="557.98" width="43.43" height="47.5" as="geometry" />
        </mxCell>
        <mxCell id="LwiWHXRCM4ZRAMe9DYlA-6" value="" style="edgeStyle=orthogonalEdgeStyle;rounded=0;orthogonalLoop=1;jettySize=auto;html=1;" edge="1" parent="1" source="LwiWHXRCM4ZRAMe9DYlA-3" target="LwiWHXRCM4ZRAMe9DYlA-5">
          <mxGeometry relative="1" as="geometry" />
        </mxCell>
        <mxCell id="LwiWHXRCM4ZRAMe9DYlA-3" value="" style="image;aspect=fixed;html=1;points=[];align=center;fontSize=12;image=img/lib/azure2/app_services/App_Services.svg;" vertex="1" parent="1">
          <mxGeometry x="30" y="561" width="48" height="48" as="geometry" />
        </mxCell>
        <mxCell id="LwiWHXRCM4ZRAMe9DYlA-8" value="" style="edgeStyle=orthogonalEdgeStyle;rounded=0;orthogonalLoop=1;jettySize=auto;html=1;" edge="1" parent="1" source="LwiWHXRCM4ZRAMe9DYlA-5" target="LwiWHXRCM4ZRAMe9DYlA-7">
          <mxGeometry relative="1" as="geometry" />
        </mxCell>
        <mxCell id="LwiWHXRCM4ZRAMe9DYlA-5" value="" style="image;aspect=fixed;html=1;points=[];align=center;fontSize=12;image=img/lib/azure2/compute/Function_Apps.svg;" vertex="1" parent="1">
          <mxGeometry x="160" y="562.5" width="51" height="45" as="geometry" />
        </mxCell>
        <mxCell id="LwiWHXRCM4ZRAMe9DYlA-13" value="" style="edgeStyle=orthogonalEdgeStyle;rounded=0;orthogonalLoop=1;jettySize=auto;html=1;" edge="1" parent="1" source="LwiWHXRCM4ZRAMe9DYlA-7" target="LwiWHXRCM4ZRAMe9DYlA-12">
          <mxGeometry relative="1" as="geometry" />
        </mxCell>
        <mxCell id="LwiWHXRCM4ZRAMe9DYlA-7" value="" style="image;aspect=fixed;html=1;points=[];align=center;fontSize=12;image=img/lib/azure2/databases/Azure_Cosmos_DB.svg;" vertex="1" parent="1">
          <mxGeometry x="290" y="558" width="54" height="54" as="geometry" />
        </mxCell>
        <mxCell id="LwiWHXRCM4ZRAMe9DYlA-9" value="" style="image;aspect=fixed;html=1;points=[];align=center;fontSize=12;image=img/lib/azure2/ai_machine_learning/Cognitive_Services.svg;" vertex="1" parent="1">
          <mxGeometry x="420" y="564" width="58" height="40.94" as="geometry" />
        </mxCell>
        <mxCell id="LwiWHXRCM4ZRAMe9DYlA-10" value="" style="edgeStyle=orthogonalEdgeStyle;rounded=0;orthogonalLoop=1;jettySize=auto;html=1;entryX=1.038;entryY=0.292;entryDx=0;entryDy=0;entryPerimeter=0;exitX=-0.026;exitY=0.241;exitDx=0;exitDy=0;exitPerimeter=0;" edge="1" parent="1" source="LwiWHXRCM4ZRAMe9DYlA-9" target="LwiWHXRCM4ZRAMe9DYlA-7">
          <mxGeometry relative="1" as="geometry">
            <mxPoint x="390" y="574" as="sourcePoint" />
            <mxPoint x="449" y="460" as="targetPoint" />
            <Array as="points" />
          </mxGeometry>
        </mxCell>
        <mxCell id="LwiWHXRCM4ZRAMe9DYlA-11" value="" style="edgeStyle=orthogonalEdgeStyle;rounded=0;orthogonalLoop=1;jettySize=auto;html=1;entryX=-0.047;entryY=0.792;entryDx=0;entryDy=0;entryPerimeter=0;exitX=0.96;exitY=0.722;exitDx=0;exitDy=0;exitPerimeter=0;" edge="1" parent="1" source="LwiWHXRCM4ZRAMe9DYlA-7" target="LwiWHXRCM4ZRAMe9DYlA-9">
          <mxGeometry relative="1" as="geometry">
            <mxPoint x="462" y="650" as="sourcePoint" />
            <mxPoint x="370" y="650" as="targetPoint" />
            <Array as="points" />
          </mxGeometry>
        </mxCell>
        <mxCell id="LwiWHXRCM4ZRAMe9DYlA-12" value="" style="image;aspect=fixed;html=1;points=[];align=center;fontSize=12;image=img/lib/azure2/analytics/Power_BI_Embedded.svg;" vertex="1" parent="1">
          <mxGeometry x="298.25" y="700" width="37.5" height="50" as="geometry" />
        </mxCell>
        <mxCell id="LwiWHXRCM4ZRAMe9DYlA-14" value="" style="endArrow=none;dashed=1;html=1;rounded=0;" edge="1" parent="1">
          <mxGeometry width="50" height="50" relative="1" as="geometry">
            <mxPoint x="10" y="640" as="sourcePoint" />
            <mxPoint x="10" y="510" as="targetPoint" />
          </mxGeometry>
        </mxCell>
        <mxCell id="LwiWHXRCM4ZRAMe9DYlA-15" value="" style="endArrow=none;dashed=1;html=1;rounded=0;" edge="1" parent="1">
          <mxGeometry width="50" height="50" relative="1" as="geometry">
            <mxPoint x="500" y="640" as="sourcePoint" />
            <mxPoint x="10" y="640" as="targetPoint" />
          </mxGeometry>
        </mxCell>
        <mxCell id="LwiWHXRCM4ZRAMe9DYlA-16" value="" style="endArrow=none;dashed=1;html=1;rounded=0;" edge="1" parent="1">
          <mxGeometry width="50" height="50" relative="1" as="geometry">
            <mxPoint x="500" y="640" as="sourcePoint" />
            <mxPoint x="500" y="510" as="targetPoint" />
          </mxGeometry>
        </mxCell>
        <mxCell id="LwiWHXRCM4ZRAMe9DYlA-17" value="" style="image;aspect=fixed;html=1;points=[];align=center;fontSize=12;image=img/lib/azure2/general/Resource_Groups.svg;" vertex="1" parent="1">
          <mxGeometry x="30" y="490" width="42.49" height="40" as="geometry" />
        </mxCell>
        <mxCell id="LwiWHXRCM4ZRAMe9DYlA-18" value="" style="endArrow=none;dashed=1;html=1;rounded=0;" edge="1" parent="1">
          <mxGeometry width="50" height="50" relative="1" as="geometry">
            <mxPoint x="29" y="510" as="sourcePoint" />
            <mxPoint x="10" y="510" as="targetPoint" />
          </mxGeometry>
        </mxCell>
        <mxCell id="LwiWHXRCM4ZRAMe9DYlA-19" value="" style="endArrow=none;dashed=1;html=1;rounded=0;" edge="1" parent="1">
          <mxGeometry width="50" height="50" relative="1" as="geometry">
            <mxPoint x="500" y="510" as="sourcePoint" />
            <mxPoint x="73" y="510" as="targetPoint" />
          </mxGeometry>
        </mxCell>
        <mxCell id="LwiWHXRCM4ZRAMe9DYlA-20" value="" style="image;aspect=fixed;html=1;points=[];align=center;fontSize=12;image=img/lib/azure2/general/Subscriptions.svg;" vertex="1" parent="1">
          <mxGeometry x="-50" y="442.27" width="29.58" height="47.73" as="geometry" />
        </mxCell>
        <mxCell id="LwiWHXRCM4ZRAMe9DYlA-26" value="" style="edgeStyle=orthogonalEdgeStyle;rounded=0;orthogonalLoop=1;jettySize=auto;html=1;entryX=0;entryY=0.48;entryDx=0;entryDy=0;entryPerimeter=0;exitX=0.943;exitY=0.557;exitDx=0;exitDy=0;exitPerimeter=0;" edge="1" parent="1" source="LwiWHXRCM4ZRAMe9DYlA-24" target="LwiWHXRCM4ZRAMe9DYlA-25">
          <mxGeometry relative="1" as="geometry">
            <mxPoint x="-10" y="584" as="sourcePoint" />
          </mxGeometry>
        </mxCell>
        <mxCell id="LwiWHXRCM4ZRAMe9DYlA-30" value="" style="edgeStyle=orthogonalEdgeStyle;rounded=0;orthogonalLoop=1;jettySize=auto;html=1;entryX=0.233;entryY=0;entryDx=0;entryDy=0;entryPerimeter=0;" edge="1" parent="1" target="LwiWHXRCM4ZRAMe9DYlA-29">
          <mxGeometry relative="1" as="geometry">
            <mxPoint x="-260" y="610" as="sourcePoint" />
          </mxGeometry>
        </mxCell>
        <mxCell id="LwiWHXRCM4ZRAMe9DYlA-24" value="" style="image;aspect=fixed;html=1;points=[];align=center;fontSize=12;image=img/lib/azure2/other/Azure_A.svg;" vertex="1" parent="1">
          <mxGeometry x="-270" y="557.28" width="50.91" height="48" as="geometry" />
        </mxCell>
        <mxCell id="LwiWHXRCM4ZRAMe9DYlA-28" value="" style="edgeStyle=orthogonalEdgeStyle;rounded=0;orthogonalLoop=1;jettySize=auto;html=1;" edge="1" parent="1" source="LwiWHXRCM4ZRAMe9DYlA-25" target="LwiWHXRCM4ZRAMe9DYlA-3">
          <mxGeometry relative="1" as="geometry" />
        </mxCell>
        <mxCell id="LwiWHXRCM4ZRAMe9DYlA-25" value="" style="image;aspect=fixed;html=1;points=[];align=center;fontSize=12;image=img/lib/azure2/azure_stack/User_Subscriptions.svg;" vertex="1" parent="1">
          <mxGeometry x="-150" y="561.0000000000001" width="51.04" height="49.53" as="geometry" />
        </mxCell>
        <mxCell id="LwiWHXRCM4ZRAMe9DYlA-29" value="" style="image;aspect=fixed;html=1;points=[];align=center;fontSize=12;image=img/lib/azure2/other/Entra_Identity.svg;" vertex="1" parent="1">
          <mxGeometry x="-273.54" y="720" width="58" height="51.55" as="geometry" />
        </mxCell>
        <mxCell id="LwiWHXRCM4ZRAMe9DYlA-31" value="" style="edgeStyle=orthogonalEdgeStyle;rounded=0;orthogonalLoop=1;jettySize=auto;html=1;entryX=0.825;entryY=1.057;entryDx=0;entryDy=0;entryPerimeter=0;exitX=0.785;exitY=-0.019;exitDx=0;exitDy=0;exitPerimeter=0;" edge="1" parent="1" source="LwiWHXRCM4ZRAMe9DYlA-29" target="LwiWHXRCM4ZRAMe9DYlA-24">
          <mxGeometry relative="1" as="geometry">
            <mxPoint x="-160" y="680" as="sourcePoint" />
            <mxPoint x="-160" y="790" as="targetPoint" />
          </mxGeometry>
        </mxCell>
        <mxCell id="LwiWHXRCM4ZRAMe9DYlA-32" value="" style="shape=image;html=1;verticalAlign=top;verticalLabelPosition=bottom;labelBackgroundColor=#ffffff;imageAspect=0;aspect=fixed;image=https://icons.diagrams.net/icon-cache1/Miscellaneous-2232/check-646.svg" vertex="1" parent="1">
          <mxGeometry x="-110" y="560" width="20" height="20" as="geometry" />
        </mxCell>
      </root>
    </mxGraphModel>
  </diagram>
</mxfile>
